# xmcd
#
# Track frame offsets:
#	150
#	13010
#	33329
#	46710
#	65549
#	79323
#	95599
#	107332
#	124523
#	136666
#	150488
#	164679
#	175962
#	189722
#	200646
#
# Disc length: 2788 seconds
#
# Revision: 1
# Processed by: cddbd v1.5PL3 Copyright (c) Steve Scherf et al.
# Submitted via: EasyCDDAExtractor 5.0.6
#
DISCID=c10ae20f
DTITLE=Gorges Brassens - Joël Favreau, Jean-Jacques Franchin Salut Brassens vo
DTITLE=l 2
DYEAR=2004
DGENRE=Chanson
TTITLE0=Je rejoindrai ma belle
TTITLE1=La non-demande en mariage
TTITLE2=C'était un peu leste
TTITLE3=L'assassinat
TTITLE4=La messe au pendu
TTITLE5=L'arc-en-ciel d'un quart d'heure
TTITLE6=La visite
TTITLE7=Jeanne
TTITLE8=Le vin
TTITLE9=Les quatre bacheliers
TTITLE10=La marche nuptiale
TTITLE11=Le temps passé
TTITLE12=La mauvaise réputation
TTITLE13=La première fille
TTITLE14=Le vent
EXTD=
EXTT0=
EXTT1=
EXTT2=
EXTT3=
EXTT4=
EXTT5=
EXTT6=
EXTT7=
EXTT8=
EXTT9=
EXTT10=
EXTT11=
EXTT12=
EXTT13=
EXTT14=
PLAYORDER=
